<?xml version="1.0" encoding="UTF-8" standalone="no"?>
<svg
   xmlns="http://www.w3.org/2000/svg"
   width="200"
   height="200"
   viewBox="0 0 200 200"
   version="1.1">
  <circle
     style="fill:#4CAF50;fill-opacity:0.2;stroke:#4CAF50;stroke-width:4;stroke-miterlimit:4;stroke-dasharray:none;stroke-opacity:1"
     cx="100"
     cy="100"
     r="90" />
  <path
     style="fill:none;stroke:#4CAF50;stroke-width:3;stroke-linecap:round;stroke-linejoin:miter;stroke-miterlimit:4;stroke-dasharray:none;stroke-opacity:1"
     d="M 30,100 H 170" />
  <path
     style="fill:none;stroke:#4CAF50;stroke-width:3;stroke-linecap:round;stroke-linejoin:miter;stroke-miterlimit:4;stroke-dasharray:none;stroke-opacity:1"
     d="M 100,30 V 170" />
  <path
     style="fill:none;stroke:#4CAF50;stroke-width:3;stroke-linecap:round;stroke-linejoin:miter;stroke-miterlimit:4;stroke-dasharray:none;stroke-opacity:1"
     d="M 38,60 C 60,90 80,40 110,60 C 140,80 150,120 162,140" />
  <path
     style="fill:none;stroke:#4CAF50;stroke-width:3;stroke-linecap:round;stroke-linejoin:miter;stroke-miterlimit:4;stroke-dasharray:none;stroke-opacity:1"
     d="M 50,155 C 70,120 100,160 135,140 C 160,125 140,80 160,65" />
  <path
     style="fill:#4CAF50;fill-opacity:1;stroke:#4CAF50;stroke-width:1;stroke-linecap:butt;stroke-linejoin:miter;stroke-miterlimit:4;stroke-dasharray:none;stroke-opacity:1"
     d="M 80,50 C 85,45 90,55 95,45 C 100,35 105,40 110,50 L 100,60 Z" />
  <path
     style="fill:#4CAF50;fill-opacity:1;stroke:#4CAF50;stroke-width:1;stroke-linecap:butt;stroke-linejoin:miter;stroke-miterlimit:4;stroke-dasharray:none;stroke-opacity:1"
     d="M 60,130 C 65,125 70,135 75,125 C 80,115 85,120 90,130 L 80,140 Z" />
  <path
     style="fill:#4CAF50;fill-opacity:1;stroke:#4CAF50;stroke-width:1;stroke-linecap:butt;stroke-linejoin:miter;stroke-miterlimit:4;stroke-dasharray:none;stroke-opacity:1"
     d="M 120,100 C 125,95 130,105 135,95 C 140,85 145,90 150,100 L 140,110 Z" />
</svg>
